<mxfile host="app.diagrams.net" agent="Mozilla/5.0 (Windows NT 10.0; Win64; x64) AppleWebKit/537.36 (KHTML, like Gecko) Chrome/135.0.0.0 Safari/537.36 Edg/135.0.0.0" version="26.2.13">
  <diagram name="PÃ¡gina-1" id="Z7Sr7gXan_PN2Ypx178M">
    <mxGraphModel dx="430" dy="238" grid="1" gridSize="10" guides="1" tooltips="1" connect="1" arrows="1" fold="1" page="1" pageScale="1" pageWidth="827" pageHeight="1169" math="0" shadow="0" adaptiveColors="auto">
      <root>
        <mxCell id="0" />
        <mxCell id="1" parent="0" />
        <mxCell id="EjBHM5i4W0MGOLP-HBnX-1" value="POKEMON" style="whiteSpace=wrap;html=1;align=center;labelBackgroundColor=none;fillColor=#182E3E;strokeColor=#FFFFFF;fontColor=#FFFFFF;" vertex="1" parent="1">
          <mxGeometry x="348" y="130" width="100" height="40" as="geometry" />
        </mxCell>
        <mxCell id="EjBHM5i4W0MGOLP-HBnX-2" value="id" style="ellipse;whiteSpace=wrap;html=1;align=center;fontStyle=4;labelBackgroundColor=none;fillColor=#182E3E;strokeColor=#FFFFFF;fontColor=#FFFFFF;" vertex="1" parent="1">
          <mxGeometry x="144" y="60" width="100" height="40" as="geometry" />
        </mxCell>
        <mxCell id="EjBHM5i4W0MGOLP-HBnX-3" value="name" style="ellipse;whiteSpace=wrap;html=1;align=center;labelBackgroundColor=none;fillColor=#182E3E;strokeColor=#FFFFFF;fontColor=#FFFFFF;" vertex="1" parent="1">
          <mxGeometry x="250" y="60" width="100" height="40" as="geometry" />
        </mxCell>
        <mxCell id="EjBHM5i4W0MGOLP-HBnX-4" value="height" style="ellipse;whiteSpace=wrap;html=1;align=center;labelBackgroundColor=none;fillColor=#182E3E;strokeColor=#FFFFFF;fontColor=#FFFFFF;" vertex="1" parent="1">
          <mxGeometry x="371" y="60" width="100" height="40" as="geometry" />
        </mxCell>
        <mxCell id="EjBHM5i4W0MGOLP-HBnX-7" value="" style="endArrow=none;html=1;rounded=0;labelBackgroundColor=none;fontColor=default;strokeColor=#23445D;" edge="1" parent="1" source="EjBHM5i4W0MGOLP-HBnX-1" target="EjBHM5i4W0MGOLP-HBnX-2">
          <mxGeometry width="50" height="50" relative="1" as="geometry">
            <mxPoint x="24" y="460" as="sourcePoint" />
            <mxPoint x="74" y="410" as="targetPoint" />
          </mxGeometry>
        </mxCell>
        <mxCell id="EjBHM5i4W0MGOLP-HBnX-9" value="" style="endArrow=none;html=1;rounded=0;labelBackgroundColor=none;fontColor=default;strokeColor=#23445D;" edge="1" parent="1" source="EjBHM5i4W0MGOLP-HBnX-3" target="EjBHM5i4W0MGOLP-HBnX-1">
          <mxGeometry width="50" height="50" relative="1" as="geometry">
            <mxPoint x="144" y="340" as="sourcePoint" />
            <mxPoint x="194" y="290" as="targetPoint" />
          </mxGeometry>
        </mxCell>
        <mxCell id="EjBHM5i4W0MGOLP-HBnX-10" value="" style="endArrow=none;html=1;rounded=0;labelBackgroundColor=none;fontColor=default;strokeColor=#23445D;" edge="1" parent="1" source="EjBHM5i4W0MGOLP-HBnX-4" target="EjBHM5i4W0MGOLP-HBnX-1">
          <mxGeometry width="50" height="50" relative="1" as="geometry">
            <mxPoint x="164" y="410" as="sourcePoint" />
            <mxPoint x="214" y="360" as="targetPoint" />
          </mxGeometry>
        </mxCell>
        <mxCell id="EjBHM5i4W0MGOLP-HBnX-11" value="weight" style="ellipse;whiteSpace=wrap;html=1;align=center;labelBackgroundColor=none;fillColor=#182E3E;strokeColor=#FFFFFF;fontColor=#FFFFFF;" vertex="1" parent="1">
          <mxGeometry x="494" y="60" width="100" height="40" as="geometry" />
        </mxCell>
        <mxCell id="EjBHM5i4W0MGOLP-HBnX-12" value="" style="endArrow=none;html=1;rounded=0;labelBackgroundColor=none;fontColor=default;strokeColor=#23445D;" edge="1" parent="1" source="EjBHM5i4W0MGOLP-HBnX-11" target="EjBHM5i4W0MGOLP-HBnX-1">
          <mxGeometry width="50" height="50" relative="1" as="geometry">
            <mxPoint x="304" y="420" as="sourcePoint" />
            <mxPoint x="358" y="290" as="targetPoint" />
          </mxGeometry>
        </mxCell>
        <mxCell id="EjBHM5i4W0MGOLP-HBnX-13" value="base_experience" style="ellipse;whiteSpace=wrap;html=1;align=center;labelBackgroundColor=none;fillColor=#182E3E;strokeColor=#FFFFFF;fontColor=#FFFFFF;" vertex="1" parent="1">
          <mxGeometry x="630" y="60" width="100" height="40" as="geometry" />
        </mxCell>
        <mxCell id="EjBHM5i4W0MGOLP-HBnX-14" value="" style="endArrow=none;html=1;rounded=0;labelBackgroundColor=none;fontColor=default;strokeColor=#23445D;" edge="1" parent="1" source="EjBHM5i4W0MGOLP-HBnX-13" target="EjBHM5i4W0MGOLP-HBnX-1">
          <mxGeometry width="50" height="50" relative="1" as="geometry">
            <mxPoint x="334" y="320" as="sourcePoint" />
            <mxPoint x="304" y="260" as="targetPoint" />
          </mxGeometry>
        </mxCell>
        <mxCell id="EjBHM5i4W0MGOLP-HBnX-15" value="TYPE" style="whiteSpace=wrap;html=1;align=center;labelBackgroundColor=none;fillColor=#182E3E;strokeColor=#FFFFFF;fontColor=#FFFFFF;" vertex="1" parent="1">
          <mxGeometry x="170" y="250" width="100" height="40" as="geometry" />
        </mxCell>
        <mxCell id="EjBHM5i4W0MGOLP-HBnX-16" value="id" style="ellipse;whiteSpace=wrap;html=1;align=center;fontStyle=4;labelBackgroundColor=none;fillColor=#182E3E;strokeColor=#FFFFFF;fontColor=#FFFFFF;" vertex="1" parent="1">
          <mxGeometry x="44" y="190" width="100" height="40" as="geometry" />
        </mxCell>
        <mxCell id="EjBHM5i4W0MGOLP-HBnX-17" value="name" style="ellipse;whiteSpace=wrap;html=1;align=center;labelBackgroundColor=none;fillColor=#182E3E;strokeColor=#FFFFFF;fontColor=#FFFFFF;" vertex="1" parent="1">
          <mxGeometry x="44" y="290" width="100" height="40" as="geometry" />
        </mxCell>
        <mxCell id="EjBHM5i4W0MGOLP-HBnX-19" value="" style="endArrow=none;html=1;rounded=0;labelBackgroundColor=none;fontColor=default;strokeColor=#23445D;" edge="1" parent="1" source="EjBHM5i4W0MGOLP-HBnX-15" target="EjBHM5i4W0MGOLP-HBnX-16">
          <mxGeometry width="50" height="50" relative="1" as="geometry">
            <mxPoint x="337" y="590" as="sourcePoint" />
            <mxPoint x="387" y="540" as="targetPoint" />
          </mxGeometry>
        </mxCell>
        <mxCell id="EjBHM5i4W0MGOLP-HBnX-20" value="" style="endArrow=none;html=1;rounded=0;labelBackgroundColor=none;fontColor=default;strokeColor=#23445D;" edge="1" parent="1" source="EjBHM5i4W0MGOLP-HBnX-17" target="EjBHM5i4W0MGOLP-HBnX-15">
          <mxGeometry width="50" height="50" relative="1" as="geometry">
            <mxPoint x="457" y="470" as="sourcePoint" />
            <mxPoint x="507" y="420" as="targetPoint" />
          </mxGeometry>
        </mxCell>
        <mxCell id="EjBHM5i4W0MGOLP-HBnX-26" value="ABILITY" style="whiteSpace=wrap;html=1;align=center;labelBackgroundColor=none;fillColor=#182E3E;strokeColor=#FFFFFF;fontColor=#FFFFFF;" vertex="1" parent="1">
          <mxGeometry x="590" y="230" width="100" height="40" as="geometry" />
        </mxCell>
        <mxCell id="EjBHM5i4W0MGOLP-HBnX-27" value="id" style="ellipse;whiteSpace=wrap;html=1;align=center;fontStyle=4;labelBackgroundColor=none;fillColor=#182E3E;strokeColor=#FFFFFF;fontColor=#FFFFFF;" vertex="1" parent="1">
          <mxGeometry x="700" y="160" width="100" height="40" as="geometry" />
        </mxCell>
        <mxCell id="EjBHM5i4W0MGOLP-HBnX-28" value="name" style="ellipse;whiteSpace=wrap;html=1;align=center;labelBackgroundColor=none;fillColor=#182E3E;strokeColor=#FFFFFF;fontColor=#FFFFFF;" vertex="1" parent="1">
          <mxGeometry x="700" y="300" width="100" height="40" as="geometry" />
        </mxCell>
        <mxCell id="EjBHM5i4W0MGOLP-HBnX-29" value="" style="endArrow=none;html=1;rounded=0;labelBackgroundColor=none;fontColor=default;strokeColor=#23445D;" edge="1" parent="1" source="EjBHM5i4W0MGOLP-HBnX-26" target="EjBHM5i4W0MGOLP-HBnX-27">
          <mxGeometry width="50" height="50" relative="1" as="geometry">
            <mxPoint x="424" y="675" as="sourcePoint" />
            <mxPoint x="474" y="625" as="targetPoint" />
          </mxGeometry>
        </mxCell>
        <mxCell id="EjBHM5i4W0MGOLP-HBnX-30" value="" style="endArrow=none;html=1;rounded=0;labelBackgroundColor=none;fontColor=default;strokeColor=#23445D;" edge="1" parent="1" source="EjBHM5i4W0MGOLP-HBnX-28" target="EjBHM5i4W0MGOLP-HBnX-26">
          <mxGeometry width="50" height="50" relative="1" as="geometry">
            <mxPoint x="544" y="555" as="sourcePoint" />
            <mxPoint x="594" y="505" as="targetPoint" />
          </mxGeometry>
        </mxCell>
        <mxCell id="EjBHM5i4W0MGOLP-HBnX-31" value="MOVE" style="whiteSpace=wrap;html=1;align=center;labelBackgroundColor=none;fillColor=#182E3E;strokeColor=#FFFFFF;fontColor=#FFFFFF;" vertex="1" parent="1">
          <mxGeometry x="170" y="360" width="100" height="40" as="geometry" />
        </mxCell>
        <mxCell id="EjBHM5i4W0MGOLP-HBnX-32" value="id" style="ellipse;whiteSpace=wrap;html=1;align=center;fontStyle=4;labelBackgroundColor=none;fillColor=#182E3E;strokeColor=#FFFFFF;fontColor=#FFFFFF;" vertex="1" parent="1">
          <mxGeometry x="30" y="425" width="100" height="40" as="geometry" />
        </mxCell>
        <mxCell id="EjBHM5i4W0MGOLP-HBnX-33" value="name" style="ellipse;whiteSpace=wrap;html=1;align=center;labelBackgroundColor=none;fillColor=#182E3E;strokeColor=#FFFFFF;fontColor=#FFFFFF;" vertex="1" parent="1">
          <mxGeometry x="100" y="470" width="100" height="40" as="geometry" />
        </mxCell>
        <mxCell id="EjBHM5i4W0MGOLP-HBnX-34" value="power" style="ellipse;whiteSpace=wrap;html=1;align=center;labelBackgroundColor=none;fillColor=#182E3E;strokeColor=#FFFFFF;fontColor=#FFFFFF;" vertex="1" parent="1">
          <mxGeometry x="210" y="470" width="100" height="40" as="geometry" />
        </mxCell>
        <mxCell id="EjBHM5i4W0MGOLP-HBnX-35" value="" style="endArrow=none;html=1;rounded=0;labelBackgroundColor=none;fontColor=default;strokeColor=#23445D;" edge="1" parent="1" source="EjBHM5i4W0MGOLP-HBnX-31" target="EjBHM5i4W0MGOLP-HBnX-32">
          <mxGeometry width="50" height="50" relative="1" as="geometry">
            <mxPoint x="30" y="710" as="sourcePoint" />
            <mxPoint x="80" y="660" as="targetPoint" />
          </mxGeometry>
        </mxCell>
        <mxCell id="EjBHM5i4W0MGOLP-HBnX-36" value="" style="endArrow=none;html=1;rounded=0;labelBackgroundColor=none;fontColor=default;strokeColor=#23445D;" edge="1" parent="1" source="EjBHM5i4W0MGOLP-HBnX-33" target="EjBHM5i4W0MGOLP-HBnX-31">
          <mxGeometry width="50" height="50" relative="1" as="geometry">
            <mxPoint x="150" y="590" as="sourcePoint" />
            <mxPoint x="200" y="540" as="targetPoint" />
          </mxGeometry>
        </mxCell>
        <mxCell id="EjBHM5i4W0MGOLP-HBnX-37" value="" style="endArrow=none;html=1;rounded=0;labelBackgroundColor=none;fontColor=default;strokeColor=#23445D;" edge="1" parent="1" source="EjBHM5i4W0MGOLP-HBnX-34" target="EjBHM5i4W0MGOLP-HBnX-31">
          <mxGeometry width="50" height="50" relative="1" as="geometry">
            <mxPoint x="170" y="660" as="sourcePoint" />
            <mxPoint x="220" y="610" as="targetPoint" />
          </mxGeometry>
        </mxCell>
        <mxCell id="EjBHM5i4W0MGOLP-HBnX-38" value="accuracy" style="ellipse;whiteSpace=wrap;html=1;align=center;labelBackgroundColor=none;fillColor=#182E3E;strokeColor=#FFFFFF;fontColor=#FFFFFF;" vertex="1" parent="1">
          <mxGeometry x="144" y="545" width="100" height="40" as="geometry" />
        </mxCell>
        <mxCell id="EjBHM5i4W0MGOLP-HBnX-39" value="" style="endArrow=none;html=1;rounded=0;labelBackgroundColor=none;fontColor=default;strokeColor=#23445D;" edge="1" parent="1" source="EjBHM5i4W0MGOLP-HBnX-38" target="EjBHM5i4W0MGOLP-HBnX-31">
          <mxGeometry width="50" height="50" relative="1" as="geometry">
            <mxPoint x="310" y="670" as="sourcePoint" />
            <mxPoint x="364" y="540" as="targetPoint" />
          </mxGeometry>
        </mxCell>
        <mxCell id="EjBHM5i4W0MGOLP-HBnX-41" value="pp" style="ellipse;whiteSpace=wrap;html=1;align=center;labelBackgroundColor=none;fillColor=#182E3E;strokeColor=#FFFFFF;fontColor=#FFFFFF;" vertex="1" parent="1">
          <mxGeometry x="300" y="415" width="100" height="40" as="geometry" />
        </mxCell>
        <mxCell id="EjBHM5i4W0MGOLP-HBnX-42" value="" style="endArrow=none;html=1;rounded=0;labelBackgroundColor=none;fontColor=default;strokeColor=#23445D;" edge="1" parent="1" source="EjBHM5i4W0MGOLP-HBnX-41" target="EjBHM5i4W0MGOLP-HBnX-31">
          <mxGeometry width="50" height="50" relative="1" as="geometry">
            <mxPoint x="340" y="780" as="sourcePoint" />
            <mxPoint x="258" y="640" as="targetPoint" />
          </mxGeometry>
        </mxCell>
        <mxCell id="EjBHM5i4W0MGOLP-HBnX-43" value="SPECIES" style="whiteSpace=wrap;html=1;align=center;labelBackgroundColor=none;fillColor=#182E3E;strokeColor=#FFFFFF;fontColor=#FFFFFF;" vertex="1" parent="1">
          <mxGeometry x="520" y="370" width="100" height="40" as="geometry" />
        </mxCell>
        <mxCell id="EjBHM5i4W0MGOLP-HBnX-44" value="id" style="ellipse;whiteSpace=wrap;html=1;align=center;fontStyle=4;labelBackgroundColor=none;fillColor=#182E3E;strokeColor=#FFFFFF;fontColor=#FFFFFF;" vertex="1" parent="1">
          <mxGeometry x="690" y="450" width="100" height="40" as="geometry" />
        </mxCell>
        <mxCell id="EjBHM5i4W0MGOLP-HBnX-45" value="" style="endArrow=none;html=1;rounded=0;labelBackgroundColor=none;fontColor=default;strokeColor=#23445D;" edge="1" parent="1" source="EjBHM5i4W0MGOLP-HBnX-44" target="EjBHM5i4W0MGOLP-HBnX-43">
          <mxGeometry width="50" height="50" relative="1" as="geometry">
            <mxPoint x="669" y="517" as="sourcePoint" />
            <mxPoint x="620" y="502.5" as="targetPoint" />
          </mxGeometry>
        </mxCell>
        <mxCell id="EjBHM5i4W0MGOLP-HBnX-47" value="" style="endArrow=none;html=1;rounded=0;labelBackgroundColor=none;fontColor=default;strokeColor=#23445D;" edge="1" parent="1" source="EjBHM5i4W0MGOLP-HBnX-50" target="EjBHM5i4W0MGOLP-HBnX-43">
          <mxGeometry width="50" height="50" relative="1" as="geometry">
            <mxPoint x="700.3270574083522" y="552.2838134524895" as="sourcePoint" />
            <mxPoint x="647" y="555" as="targetPoint" />
          </mxGeometry>
        </mxCell>
        <mxCell id="EjBHM5i4W0MGOLP-HBnX-49" value="" style="endArrow=none;html=1;rounded=0;labelBackgroundColor=none;fontColor=default;strokeColor=#23445D;" edge="1" parent="1" source="EjBHM5i4W0MGOLP-HBnX-51" target="EjBHM5i4W0MGOLP-HBnX-43">
          <mxGeometry width="50" height="50" relative="1" as="geometry">
            <mxPoint x="719.8338256258976" y="660.9499312782607" as="sourcePoint" />
            <mxPoint x="647" y="700" as="targetPoint" />
          </mxGeometry>
        </mxCell>
        <mxCell id="EjBHM5i4W0MGOLP-HBnX-50" value="name" style="ellipse;whiteSpace=wrap;html=1;align=center;labelBackgroundColor=none;fillColor=#182E3E;strokeColor=#FFFFFF;fontColor=#FFFFFF;" vertex="1" parent="1">
          <mxGeometry x="570" y="450" width="100" height="40" as="geometry" />
        </mxCell>
        <mxCell id="EjBHM5i4W0MGOLP-HBnX-51" value="habitat" style="ellipse;whiteSpace=wrap;html=1;align=center;labelBackgroundColor=none;fillColor=#182E3E;strokeColor=#FFFFFF;fontColor=#FFFFFF;" vertex="1" parent="1">
          <mxGeometry x="450" y="450" width="100" height="40" as="geometry" />
        </mxCell>
        <mxCell id="EjBHM5i4W0MGOLP-HBnX-53" value="pot tenir" style="shape=rhombus;perimeter=rhombusPerimeter;whiteSpace=wrap;html=1;align=center;fontSize=9;labelBackgroundColor=none;fillColor=#182E3E;strokeColor=#FFFFFF;fontColor=#FFFFFF;" vertex="1" parent="1">
          <mxGeometry x="270" y="190" width="70" height="40" as="geometry" />
        </mxCell>
        <mxCell id="EjBHM5i4W0MGOLP-HBnX-56" value="pertany" style="shape=rhombus;perimeter=rhombusPerimeter;whiteSpace=wrap;html=1;align=center;fontSize=9;labelBackgroundColor=none;fillColor=#182E3E;strokeColor=#FFFFFF;fontColor=#FFFFFF;" vertex="1" parent="1">
          <mxGeometry x="424" y="320" width="70" height="40" as="geometry" />
        </mxCell>
        <mxCell id="EjBHM5i4W0MGOLP-HBnX-58" value="" style="endArrow=none;html=1;rounded=0;labelBackgroundColor=none;fontColor=default;strokeColor=#23445D;" edge="1" parent="1" source="EjBHM5i4W0MGOLP-HBnX-53" target="EjBHM5i4W0MGOLP-HBnX-1">
          <mxGeometry width="50" height="50" relative="1" as="geometry">
            <mxPoint x="420" y="270" as="sourcePoint" />
            <mxPoint x="470" y="220" as="targetPoint" />
          </mxGeometry>
        </mxCell>
        <mxCell id="EjBHM5i4W0MGOLP-HBnX-59" value="" style="endArrow=none;html=1;rounded=0;labelBackgroundColor=none;fontColor=default;strokeColor=#23445D;" edge="1" parent="1" source="EjBHM5i4W0MGOLP-HBnX-15" target="EjBHM5i4W0MGOLP-HBnX-53">
          <mxGeometry width="50" height="50" relative="1" as="geometry">
            <mxPoint x="350" y="370" as="sourcePoint" />
            <mxPoint x="400" y="320" as="targetPoint" />
          </mxGeometry>
        </mxCell>
        <mxCell id="EjBHM5i4W0MGOLP-HBnX-60" value="" style="endArrow=none;html=1;rounded=0;labelBackgroundColor=none;fontColor=default;strokeColor=#23445D;" edge="1" parent="1" source="EjBHM5i4W0MGOLP-HBnX-26" target="EjBHM5i4W0MGOLP-HBnX-62">
          <mxGeometry width="50" height="50" relative="1" as="geometry">
            <mxPoint x="470" y="320" as="sourcePoint" />
            <mxPoint x="520" y="270" as="targetPoint" />
          </mxGeometry>
        </mxCell>
        <mxCell id="EjBHM5i4W0MGOLP-HBnX-61" value="" style="endArrow=none;html=1;rounded=0;labelBackgroundColor=none;fontColor=default;strokeColor=#23445D;" edge="1" parent="1" source="EjBHM5i4W0MGOLP-HBnX-31" target="EjBHM5i4W0MGOLP-HBnX-63">
          <mxGeometry width="50" height="50" relative="1" as="geometry">
            <mxPoint x="534" y="430" as="sourcePoint" />
            <mxPoint x="330" y="352" as="targetPoint" />
          </mxGeometry>
        </mxCell>
        <mxCell id="EjBHM5i4W0MGOLP-HBnX-62" value="pot tenir" style="shape=rhombus;perimeter=rhombusPerimeter;whiteSpace=wrap;html=1;align=center;fontSize=9;labelBackgroundColor=none;fillColor=#182E3E;strokeColor=#FFFFFF;fontColor=#FFFFFF;" vertex="1" parent="1">
          <mxGeometry x="480" y="200" width="70" height="40" as="geometry" />
        </mxCell>
        <mxCell id="EjBHM5i4W0MGOLP-HBnX-63" value="pot tenir" style="shape=rhombus;perimeter=rhombusPerimeter;whiteSpace=wrap;html=1;align=center;fontSize=9;labelBackgroundColor=none;fillColor=#182E3E;strokeColor=#FFFFFF;fontColor=#FFFFFF;" vertex="1" parent="1">
          <mxGeometry x="330" y="300" width="70" height="40" as="geometry" />
        </mxCell>
        <mxCell id="EjBHM5i4W0MGOLP-HBnX-64" value="" style="endArrow=none;html=1;rounded=0;labelBackgroundColor=none;fontColor=default;strokeColor=#23445D;" edge="1" parent="1" source="EjBHM5i4W0MGOLP-HBnX-62" target="EjBHM5i4W0MGOLP-HBnX-1">
          <mxGeometry width="50" height="50" relative="1" as="geometry">
            <mxPoint x="345" y="246" as="sourcePoint" />
            <mxPoint x="393" y="180" as="targetPoint" />
          </mxGeometry>
        </mxCell>
        <mxCell id="EjBHM5i4W0MGOLP-HBnX-65" value="" style="endArrow=none;html=1;rounded=0;labelBackgroundColor=none;fontColor=default;strokeColor=#23445D;" edge="1" parent="1" source="EjBHM5i4W0MGOLP-HBnX-63" target="EjBHM5i4W0MGOLP-HBnX-1">
          <mxGeometry width="50" height="50" relative="1" as="geometry">
            <mxPoint x="428" y="307" as="sourcePoint" />
            <mxPoint x="371" y="240" as="targetPoint" />
          </mxGeometry>
        </mxCell>
        <mxCell id="EjBHM5i4W0MGOLP-HBnX-66" value="" style="endArrow=none;html=1;rounded=0;labelBackgroundColor=none;fontColor=default;strokeColor=#23445D;" edge="1" parent="1" source="EjBHM5i4W0MGOLP-HBnX-56" target="EjBHM5i4W0MGOLP-HBnX-1">
          <mxGeometry width="50" height="50" relative="1" as="geometry">
            <mxPoint x="408" y="320" as="sourcePoint" />
            <mxPoint x="408" y="180" as="targetPoint" />
          </mxGeometry>
        </mxCell>
        <mxCell id="EjBHM5i4W0MGOLP-HBnX-68" value="" style="endArrow=none;html=1;rounded=0;labelBackgroundColor=none;fontColor=default;strokeColor=#23445D;" edge="1" parent="1" source="EjBHM5i4W0MGOLP-HBnX-43" target="EjBHM5i4W0MGOLP-HBnX-56">
          <mxGeometry width="50" height="50" relative="1" as="geometry">
            <mxPoint x="460" y="480" as="sourcePoint" />
            <mxPoint x="510" y="430" as="targetPoint" />
          </mxGeometry>
        </mxCell>
        <mxCell id="EjBHM5i4W0MGOLP-HBnX-69" value="1,N" style="text;html=1;align=center;verticalAlign=middle;whiteSpace=wrap;rounded=0;fontSize=10;labelBackgroundColor=none;fontColor=#FFFFFF;" vertex="1" parent="1">
          <mxGeometry x="310" y="160" width="60" height="30" as="geometry" />
        </mxCell>
        <mxCell id="EjBHM5i4W0MGOLP-HBnX-70" value="N,M" style="text;html=1;align=center;verticalAlign=middle;whiteSpace=wrap;rounded=0;fontSize=10;labelBackgroundColor=none;fontColor=#FFFFFF;" vertex="1" parent="1">
          <mxGeometry x="240" y="230" width="60" height="30" as="geometry" />
        </mxCell>
        <mxCell id="EjBHM5i4W0MGOLP-HBnX-71" value="1,N" style="text;html=1;align=center;verticalAlign=middle;whiteSpace=wrap;rounded=0;fontSize=10;labelBackgroundColor=none;fontColor=#FFFFFF;" vertex="1" parent="1">
          <mxGeometry x="354" y="165" width="60" height="30" as="geometry" />
        </mxCell>
        <mxCell id="EjBHM5i4W0MGOLP-HBnX-72" value="1,N" style="text;html=1;align=center;verticalAlign=middle;whiteSpace=wrap;rounded=0;fontSize=10;labelBackgroundColor=none;fontColor=#FFFFFF;" vertex="1" parent="1">
          <mxGeometry x="388" y="165" width="60" height="30" as="geometry" />
        </mxCell>
        <mxCell id="EjBHM5i4W0MGOLP-HBnX-73" value="1,N" style="text;html=1;align=center;verticalAlign=middle;whiteSpace=wrap;rounded=0;fontSize=10;labelBackgroundColor=none;fillColor=none;fontColor=#FFFFFF;" vertex="1" parent="1">
          <mxGeometry x="424" y="160" width="60" height="30" as="geometry" />
        </mxCell>
        <mxCell id="EjBHM5i4W0MGOLP-HBnX-74" value="N,M" style="text;html=1;align=center;verticalAlign=middle;whiteSpace=wrap;rounded=0;fontSize=10;labelBackgroundColor=none;fontColor=#FFFFFF;" vertex="1" parent="1">
          <mxGeometry x="240" y="330" width="60" height="30" as="geometry" />
        </mxCell>
        <mxCell id="EjBHM5i4W0MGOLP-HBnX-77" value="1,1" style="text;html=1;align=center;verticalAlign=middle;whiteSpace=wrap;rounded=0;fontSize=10;labelBackgroundColor=none;fontColor=#FFFFFF;" vertex="1" parent="1">
          <mxGeometry x="480" y="360" width="60" height="30" as="geometry" />
        </mxCell>
        <mxCell id="EjBHM5i4W0MGOLP-HBnX-79" value="N,M" style="text;html=1;align=center;verticalAlign=middle;whiteSpace=wrap;rounded=0;fontSize=10;labelBackgroundColor=none;fontColor=#FFFFFF;" vertex="1" parent="1">
          <mxGeometry x="550" y="210" width="60" height="30" as="geometry" />
        </mxCell>
      </root>
    </mxGraphModel>
  </diagram>
</mxfile>
